<?xml version="1.0" encoding="UTF-8" ?>
<!DOCTYPE svg PUBLIC "-//W3C//DTD SVG 1.1//EN" "http://www.w3.org/Graphics/SVG/1.1/DTD/svg11.dtd">
<svg width="360pt" height="96pt" viewBox="0 0 360 96" version="1.1" xmlns="http://www.w3.org/2000/svg">
<g id="#008b89ff">
<path fill="#008b89" opacity="1.00" d=" M 36.83 0.00 L 40.71 0.00 C 42.84 0.61 45.03 1.04 47.09 1.87 C 47.17 3.60 46.76 5.30 46.66 7.03 C 46.05 14.77 48.88 22.97 54.95 28.00 C 61.77 33.85 71.72 35.14 80.11 32.33 C 82.78 31.44 85.14 29.82 87.85 29.05 C 89.63 34.02 90.83 39.32 90.58 44.62 C 86.35 46.08 82.21 47.79 78.09 49.54 C 76.34 47.41 74.96 44.95 72.89 43.10 C 68.35 38.94 62.27 36.09 56.01 36.61 C 53.08 36.61 50.40 37.90 47.60 38.55 C 45.83 36.91 44.55 34.82 42.93 33.04 C 38.68 28.31 33.81 24.14 29.78 19.21 C 27.95 16.85 26.09 14.32 25.53 11.32 C 24.91 7.91 26.98 4.57 29.73 2.69 C 31.95 1.45 34.41 0.74 36.83 0.00 Z" />
<path fill="#008b89" opacity="1.00" d=" M 60.79 2.64 L 61.85 2.62 C 69.25 5.59 76.10 10.44 80.85 16.87 C 79.33 18.82 76.37 19.44 73.95 19.63 C 67.79 20.26 61.65 15.72 60.45 9.66 C 60.08 7.33 60.25 4.93 60.79 2.64 Z" />
<path fill="#008b89" opacity="1.00" d=" M 10.34 16.04 L 11.18 14.97 C 14.09 24.07 20.55 31.27 26.55 38.46 C 28.54 41.07 31.02 43.71 31.39 47.11 C 30.20 49.87 27.11 52.25 23.98 51.39 C 17.75 49.58 12.97 44.96 8.32 40.68 C 6.06 38.53 3.63 36.54 1.57 34.20 C 1.55 33.98 1.50 33.56 1.48 33.35 C 3.17 27.03 6.27 21.14 10.34 16.04 Z" />
<path fill="#008b89" opacity="1.00" d=" M 0.00 48.76 C 2.98 52.48 5.80 56.39 9.50 59.45 C 15.05 64.06 21.78 67.54 29.02 68.31 C 35.73 68.93 42.49 65.83 46.63 60.57 C 49.09 58.03 49.95 54.55 51.45 51.47 C 56.31 50.70 61.14 53.27 63.85 57.25 C 60.64 60.00 56.81 61.89 53.56 64.58 C 49.09 68.19 44.67 72.41 42.86 78.02 C 41.60 81.90 42.41 85.99 42.65 89.95 C 23.81 89.52 6.51 75.20 1.77 57.10 C 1.20 55.08 0.65 53.05 0.00 51.06 L 0.00 48.76 Z" />
<path fill="#008b89" opacity="1.00" d=" M 86.33 57.58 C 87.00 57.32 88.34 56.80 89.01 56.54 C 88.69 59.13 87.45 61.43 86.67 63.87 C 84.32 64.32 85.68 60.77 84.15 59.91 C 83.74 58.36 84.99 57.71 86.33 57.58 Z" />
<path fill="#008b89" opacity="1.00" d=" M 66.38 71.51 C 67.61 70.96 69.94 69.34 70.34 71.67 C 71.51 74.87 71.74 78.33 71.54 81.70 C 68.16 84.48 64.07 86.39 59.93 87.75 C 58.59 88.46 57.62 86.91 57.04 85.97 C 55.93 83.60 56.03 80.60 57.48 78.39 C 59.47 75.06 63.00 73.14 66.38 71.51 Z" />
</g>
<g id="#2b2a29fe">
<path fill="#2b2a29" opacity="1.00" d=" M 123.38 20.51 C 126.31 19.43 130.02 19.54 132.51 21.57 C 132.67 22.68 132.73 23.79 132.69 24.91 C 130.40 24.74 128.35 23.16 126.00 23.59 C 123.99 23.98 123.41 26.75 125.00 27.97 C 127.78 29.84 131.64 30.49 133.37 33.65 C 135.28 37.87 132.39 43.17 127.74 43.64 C 124.70 43.94 120.48 44.10 118.69 41.10 C 118.81 40.37 119.04 38.91 119.15 38.18 C 121.70 38.92 124.28 40.97 127.02 39.82 C 128.41 39.58 128.84 38.16 129.29 37.02 C 127.99 33.72 123.85 33.66 121.48 31.47 C 117.77 28.66 118.88 21.90 123.38 20.51 Z" />
<path fill="#2b2a29" opacity="1.00" d=" M 144.29 20.45 C 145.96 20.19 147.67 20.28 149.33 20.52 C 151.85 26.27 153.39 32.40 155.65 38.26 C 156.14 40.01 157.23 41.82 156.80 43.68 C 155.38 43.77 153.95 43.78 152.55 43.56 C 151.54 42.00 151.44 40.04 150.51 38.44 C 147.73 38.26 144.94 38.25 142.17 38.40 C 141.05 39.95 141.06 42.17 139.69 43.52 C 138.53 43.67 137.36 43.70 136.20 43.60 C 135.83 41.26 137.11 39.12 137.78 36.95 C 139.87 31.56 141.46 25.97 143.72 20.65 L 144.29 20.45 M 145.96 26.04 C 144.84 28.83 143.98 31.73 143.10 34.60 C 145.23 34.75 147.40 34.77 149.52 34.43 C 148.58 31.66 147.74 28.85 146.70 26.11 L 145.96 26.04 Z" />
<path fill="#2b2a29" opacity="1.00" d=" M 162.31 20.43 C 163.30 20.68 165.44 19.74 165.60 21.19 C 165.96 27.18 165.44 33.21 165.71 39.21 L 166.02 39.71 C 168.37 39.86 170.75 39.59 173.09 39.92 C 174.18 40.73 173.49 42.37 173.56 43.52 C 169.58 43.82 165.55 43.77 161.57 43.50 L 160.96 43.01 C 160.61 35.69 160.78 28.32 161.29 21.01 C 161.54 20.87 162.06 20.58 162.31 20.43 Z" />
<path fill="#2b2a29" opacity="1.00" d=" M 174.32 20.50 C 175.61 20.36 176.94 20.40 178.21 20.71 C 179.84 26.34 180.74 32.16 182.18 37.84 L 182.80 37.81 C 184.37 32.22 185.50 26.50 187.04 20.90 C 188.62 20.34 190.37 20.42 191.97 20.88 C 193.53 26.48 194.58 32.22 196.15 37.81 L 196.81 37.86 C 198.37 32.21 199.31 26.40 200.99 20.79 C 202.37 20.57 203.77 20.55 205.17 20.75 C 205.29 22.29 204.70 23.75 204.33 25.22 C 202.53 31.20 201.26 37.35 199.28 43.27 C 197.65 44.54 195.21 43.91 193.30 43.63 C 191.60 38.88 190.91 33.84 189.56 28.99 C 188.48 29.56 188.46 30.94 188.15 31.97 C 187.27 35.75 186.59 39.61 185.32 43.29 C 183.71 44.36 181.35 43.82 179.49 43.58 C 178.63 42.59 178.60 41.20 178.23 40.01 C 176.78 33.90 175.11 27.85 173.62 21.76 C 173.80 21.44 174.15 20.81 174.32 20.50 Z" />
<path fill="#2b2a29" opacity="1.00" d=" M 213.58 21.43 C 214.33 19.96 216.71 20.89 218.09 20.69 C 219.97 20.59 220.10 22.96 220.74 24.23 C 222.64 30.91 225.75 37.27 227.00 44.11 C 225.65 44.29 224.30 44.29 222.96 44.12 C 221.26 42.83 221.71 40.10 220.13 38.76 C 217.42 38.56 214.68 38.58 211.98 38.80 C 211.22 40.44 210.97 42.32 209.94 43.82 C 208.63 44.27 207.32 44.28 206.01 43.84 C 205.63 42.49 206.53 41.21 206.86 39.95 C 209.20 33.81 211.09 27.50 213.58 21.43 M 216.09 26.28 C 214.86 29.06 213.96 31.97 213.12 34.89 C 215.14 35.43 217.26 35.24 219.32 35.10 C 218.90 32.00 217.54 29.12 216.63 26.13 L 216.09 26.28 Z" />
<path fill="#2b2a29" opacity="1.00" d=" M 226.39 21.37 C 227.61 20.30 229.52 21.01 231.02 20.78 C 235.26 21.01 239.55 20.44 243.75 21.24 C 243.84 22.39 243.83 23.54 243.73 24.69 C 241.78 25.18 238.94 24.01 237.53 25.35 C 237.18 31.60 237.69 37.90 237.21 44.15 C 235.72 44.31 234.24 44.30 232.75 44.14 C 232.34 37.85 232.91 31.53 232.61 25.23 C 230.99 24.07 228.38 25.05 226.39 24.59 C 226.24 23.52 226.24 22.44 226.39 21.37 Z" />
<path fill="#2b2a29" opacity="1.00" d=" M 251.27 21.39 C 254.91 20.12 259.31 20.24 262.58 22.45 C 265.64 24.57 266.62 28.47 266.56 32.00 C 266.83 36.53 265.08 41.67 260.67 43.64 C 255.61 45.78 248.11 44.90 245.73 39.26 C 243.38 33.15 244.34 24.03 251.27 21.39 M 252.40 25.45 C 249.74 27.39 249.36 30.94 249.59 33.98 C 249.61 36.42 250.49 39.33 252.94 40.37 C 255.29 40.96 258.31 41.06 259.93 38.91 C 262.07 36.13 261.76 32.34 261.36 29.06 C 260.88 24.99 255.53 23.15 252.40 25.45 Z" />
<path fill="#2b2a29" opacity="1.00" d=" M 270.36 21.37 C 273.25 21.07 276.16 21.19 279.06 21.31 C 281.53 21.33 284.14 22.45 285.37 24.69 C 286.02 26.49 285.99 28.56 285.40 30.37 C 284.61 31.76 283.14 32.58 282.15 33.81 C 284.45 36.81 286.04 40.32 286.97 43.98 C 285.69 44.96 283.43 44.82 282.10 43.98 C 280.85 41.47 280.27 38.64 278.68 36.30 C 277.87 35.06 276.11 34.37 274.69 34.90 C 274.35 37.81 274.74 40.76 274.44 43.67 C 273.57 45.25 271.26 44.25 269.86 44.18 C 269.61 38.46 269.91 32.73 269.79 27.00 C 269.83 25.12 269.57 23.14 270.36 21.37 M 274.74 24.80 C 274.53 26.98 274.51 29.17 274.67 31.36 C 276.59 31.51 278.75 31.61 280.32 30.26 C 281.16 28.92 281.12 27.07 280.29 25.74 C 278.70 24.51 276.62 24.61 274.74 24.80 Z" />
<path fill="#2b2a29" opacity="1.00" d=" M 296.20 21.37 C 298.93 20.40 302.11 20.86 304.56 22.37 C 304.84 23.58 304.94 24.80 304.85 26.05 C 302.57 25.54 300.38 24.20 297.98 24.65 C 296.24 25.23 295.57 27.73 297.08 28.90 C 299.80 30.85 303.67 31.41 305.42 34.56 C 307.65 38.42 304.94 43.72 300.65 44.54 C 297.88 44.99 294.79 45.09 292.27 43.66 C 290.55 42.90 290.93 40.64 291.32 39.18 C 293.58 39.85 295.64 41.27 298.08 41.26 C 299.82 40.99 301.27 39.71 301.50 37.91 C 299.62 34.17 294.14 34.56 292.27 30.77 C 290.20 27.31 292.15 22.21 296.20 21.37 Z" />
<path fill="#2b2a29" opacity="1.00" d=" M 311.35 21.50 C 312.67 21.16 314.11 21.24 315.37 21.76 C 315.94 24.82 314.52 28.43 315.85 31.17 C 318.32 28.09 320.13 24.52 322.76 21.56 C 324.28 21.27 326.00 21.15 327.39 21.99 C 325.59 25.71 322.37 28.47 320.25 31.98 C 322.17 36.32 325.66 39.86 327.68 44.20 C 326.15 44.97 324.31 44.90 322.70 44.46 C 319.88 41.14 318.55 36.70 315.33 33.75 C 315.12 37.19 315.68 40.65 315.14 44.07 C 314.05 45.23 312.03 44.63 310.64 44.34 C 310.41 36.83 310.59 29.30 310.69 21.79 L 311.35 21.50 Z" />
<path fill="#2b2a29" opacity="1.00" d=" M 332.37 21.53 C 333.65 21.33 334.99 21.41 336.23 21.85 C 336.38 28.93 336.28 36.02 336.21 43.10 C 336.38 45.68 333.03 44.67 331.49 44.48 C 331.44 36.88 331.35 29.25 331.66 21.65 L 332.37 21.53 Z" />
<path fill="#2b2a29" opacity="1.00" d=" M 342.33 22.15 L 342.97 21.69 C 347.03 21.49 351.11 21.57 355.17 21.69 C 356.05 22.60 355.91 24.37 355.20 25.34 C 352.41 25.74 349.39 24.76 346.74 25.74 C 346.54 27.42 346.60 29.12 346.85 30.79 C 349.22 30.98 351.65 30.64 353.98 31.22 C 355.02 31.89 354.35 33.34 354.34 34.33 C 351.83 34.78 349.26 34.42 346.73 34.62 C 346.57 36.78 346.57 38.95 346.76 41.11 C 349.71 41.33 352.69 41.02 355.64 41.41 C 355.72 42.47 355.72 43.53 355.63 44.59 C 351.25 44.87 346.82 44.84 342.44 44.58 C 341.88 37.15 342.26 29.62 342.33 22.15 Z" />
<path fill="#2b2a29" opacity="1.00" d=" M 121.41 52.61 C 123.43 51.37 126.04 51.77 127.86 53.16 C 127.85 53.52 127.82 54.25 127.81 54.62 C 126.25 54.14 124.73 53.08 123.03 53.53 C 120.65 53.83 120.54 57.50 122.57 58.37 C 124.53 59.69 127.11 60.34 128.42 62.45 C 129.84 65.43 127.32 69.10 124.05 68.88 C 122.16 68.92 118.75 68.83 119.04 66.13 C 120.96 66.70 122.86 67.85 124.94 67.32 C 126.93 66.87 128.09 64.01 126.41 62.55 C 124.39 60.84 121.44 60.31 119.93 57.99 C 118.76 56.19 119.58 53.63 121.41 52.61 Z" />
<path fill="#2b2a29" opacity="1.00" d=" M 130.87 52.27 C 134.83 52.15 138.79 52.20 142.74 52.36 C 142.74 52.68 142.73 53.31 142.73 53.63 C 141.00 53.74 139.26 53.69 137.54 53.78 C 137.27 58.67 137.60 63.57 137.38 68.46 C 137.04 68.57 136.36 68.80 136.02 68.91 C 135.30 63.95 136.08 58.89 135.77 53.89 C 134.00 53.47 132.03 54.02 130.37 53.19 L 130.87 52.27 Z" />
<path fill="#2b2a29" opacity="1.00" d=" M 146.17 52.17 C 146.50 52.24 147.17 52.38 147.51 52.45 C 147.82 56.61 147.10 60.81 147.77 64.94 C 148.78 68.58 154.84 68.59 155.89 64.99 C 156.80 60.83 155.86 56.49 156.40 52.26 C 156.71 52.26 157.34 52.26 157.66 52.27 C 157.87 56.41 157.89 60.59 157.61 64.74 C 156.70 70.09 148.20 70.85 146.35 65.75 C 145.36 61.34 145.65 56.64 146.17 52.17 Z" />
<path fill="#2b2a29" opacity="1.00" d=" M 164.26 52.39 C 166.95 52.33 169.92 52.08 172.25 53.70 C 175.91 56.20 176.12 61.65 174.33 65.33 C 172.27 69.23 167.09 69.62 163.27 68.73 C 163.25 63.31 162.91 57.84 163.49 52.46 L 164.26 52.39 M 164.87 53.84 C 164.70 58.38 164.74 62.92 164.79 67.46 C 167.22 67.62 170.06 67.77 171.98 65.98 C 174.05 63.32 174.20 59.26 172.56 56.37 C 170.98 53.75 167.58 53.59 164.87 53.84 Z" />
<path fill="#2b2a29" opacity="1.00" d=" M 180.26 52.46 L 180.75 52.27 L 181.20 52.85 C 181.38 58.25 181.34 63.69 181.09 69.09 C 180.71 68.98 179.94 68.76 179.55 68.65 C 179.57 63.33 179.52 58.00 179.72 52.69 L 180.26 52.46 Z" />
<path fill="#2b2a29" opacity="1.00" d=" M 191.34 52.42 C 194.58 51.73 198.45 53.34 199.37 56.74 C 200.13 59.92 200.25 63.64 198.42 66.50 C 195.78 70.67 188.31 70.44 186.39 65.71 C 184.47 61.03 185.45 53.52 191.34 52.42 M 190.30 54.35 C 186.76 56.23 187.03 60.91 187.61 64.28 C 188.63 68.26 194.56 69.14 196.89 65.93 C 198.53 63.37 198.58 60.01 197.69 57.18 C 196.87 54.19 192.89 52.82 190.30 54.35 Z" />
<path fill="#2b2a29" opacity="1.00" d=" M 213.58 53.35 C 213.94 53.11 214.66 52.62 215.02 52.38 C 217.76 57.38 219.00 63.05 221.21 68.30 C 221.11 68.68 220.91 69.43 220.81 69.80 C 219.10 68.69 218.97 66.43 218.02 64.78 C 215.69 64.54 213.32 64.53 210.99 64.76 C 209.96 66.37 210.08 69.15 207.78 69.57 C 207.90 67.50 208.87 65.63 209.58 63.73 C 210.96 60.29 211.97 56.70 213.58 53.35 M 214.32 55.00 C 213.38 57.73 212.20 60.41 211.61 63.25 C 213.53 63.39 215.47 63.39 217.41 63.26 C 216.67 60.43 216.01 57.44 214.32 55.00 Z" />
<path fill="#2b2a29" opacity="1.00" d=" M 225.13 53.00 C 228.24 52.36 233.00 52.25 234.22 55.94 C 235.02 58.15 233.18 59.73 231.86 61.18 C 233.09 63.98 235.20 66.68 234.81 69.91 C 231.76 68.05 232.80 62.79 229.05 61.70 C 228.44 61.71 227.21 61.73 226.59 61.74 C 226.32 64.22 226.84 66.79 226.23 69.22 C 226.02 69.37 225.59 69.68 225.38 69.83 C 224.39 67.34 224.87 64.61 224.81 62.00 C 224.91 59.00 224.54 55.96 225.13 53.00 M 227.03 54.25 C 225.89 55.91 226.72 58.31 226.65 60.24 C 228.46 60.28 230.92 60.79 232.03 58.89 C 233.15 57.50 232.54 55.42 231.07 54.56 C 229.75 54.21 228.37 54.17 227.03 54.25 Z" />
<path fill="#2b2a29" opacity="1.00" d=" M 237.14 52.98 C 241.09 52.56 245.09 52.83 249.06 52.92 C 249.99 56.41 243.31 52.25 243.85 55.92 C 243.58 60.29 243.99 64.68 243.66 69.05 L 242.98 69.89 L 242.35 69.03 C 241.99 64.29 242.50 59.53 242.31 54.79 C 241.03 53.31 236.80 55.68 237.14 52.98 Z" />
<path fill="#2b2a29" opacity="1.00" d=" M 250.61 52.73 L 251.97 52.97 C 253.66 55.45 254.58 58.34 256.01 60.97 C 258.00 58.72 258.49 55.60 260.30 53.23 C 260.70 53.19 261.51 53.10 261.92 53.06 C 260.52 56.49 258.38 59.56 257.05 63.01 C 256.72 65.23 256.91 67.49 256.66 69.72 C 256.36 69.68 255.77 69.61 255.47 69.57 C 255.18 67.39 255.44 65.19 255.23 63.00 C 254.00 59.44 251.56 56.41 250.61 52.73 Z" />
<path fill="#2b2a29" opacity="1.00" d=" M 266.34 53.39 C 268.34 52.28 271.72 52.52 272.84 54.74 L 272.26 55.25 C 269.92 54.06 266.05 53.51 265.54 57.04 C 266.92 60.58 271.85 60.31 273.37 63.75 C 273.71 65.08 273.58 66.60 272.69 67.70 C 270.60 70.59 265.80 70.41 263.43 67.98 L 263.81 67.06 C 266.03 67.62 268.59 69.35 270.70 67.57 C 272.01 66.82 272.04 64.90 271.43 63.70 C 269.61 62.05 267.10 61.39 265.31 59.70 C 263.40 57.97 263.92 54.39 266.34 53.39 Z" />
<path fill="#2b2a29" opacity="1.00" d=" M 275.13 53.26 C 279.16 53.08 283.19 53.13 287.23 53.23 L 287.65 54.36 C 285.85 54.67 284.00 54.42 282.23 54.81 C 281.95 59.82 282.63 64.89 281.84 69.87 C 281.53 69.76 280.89 69.53 280.58 69.42 C 280.32 64.49 280.78 59.55 280.50 54.62 C 278.85 54.00 275.50 55.67 275.13 53.26 Z" />
<path fill="#2b2a29" opacity="1.00" d=" M 289.04 52.96 C 289.39 53.09 290.11 53.35 290.47 53.48 C 291.97 55.75 292.70 58.43 294.07 60.78 L 294.75 60.81 C 296.16 58.44 296.94 55.72 298.52 53.44 C 298.87 53.34 299.56 53.13 299.91 53.03 C 299.25 56.75 296.49 59.64 295.35 63.19 C 295.00 65.38 295.64 67.73 294.85 69.84 C 294.53 69.75 293.87 69.56 293.55 69.47 C 293.41 67.34 293.69 65.19 293.41 63.06 C 292.22 59.58 289.61 56.65 289.04 52.96 Z" />
<path fill="#2b2a29" opacity="1.00" d=" M 306.38 53.48 C 309.05 52.73 312.70 53.09 314.01 55.93 C 311.65 55.69 309.44 53.95 307.04 54.80 C 304.20 55.88 303.30 59.25 303.41 62.00 C 303.32 64.56 304.47 67.45 307.06 68.37 C 309.45 69.05 311.57 67.44 313.87 67.13 C 312.67 70.35 308.20 70.32 305.47 69.37 C 299.87 66.12 300.36 55.99 306.38 53.48 Z" />
<path fill="#2b2a29" opacity="1.00" d=" M 316.17 53.35 C 319.38 53.25 322.60 53.25 325.81 53.43 C 325.88 53.79 326.02 54.51 326.10 54.88 C 323.54 59.54 320.09 63.67 317.58 68.36 C 320.28 68.58 323.01 68.32 325.72 68.53 C 325.92 68.85 326.32 69.48 326.52 69.79 C 322.84 69.59 318.79 70.55 315.35 69.19 C 317.90 64.14 321.67 59.83 324.28 54.82 C 321.56 54.62 318.83 54.79 316.12 54.68 C 316.13 54.35 316.16 53.68 316.17 53.35 Z" />
<path fill="#2b2a29" opacity="1.00" d=" M 330.39 53.32 C 330.85 53.39 331.78 53.54 332.24 53.61 C 335.09 57.52 336.94 62.05 339.43 66.18 L 340.35 66.81 C 340.53 62.39 340.00 57.94 340.56 53.54 C 340.84 53.46 341.41 53.30 341.69 53.22 C 342.09 58.76 341.88 64.34 341.73 69.89 C 339.40 70.48 338.71 67.76 337.72 66.27 C 335.69 62.97 334.37 59.17 331.73 56.29 C 331.41 60.76 331.77 65.25 331.55 69.73 C 331.21 69.79 330.52 69.93 330.18 70.00 C 330.15 64.44 329.92 58.86 330.39 53.32 Z" />
<path fill="#2b2a29" opacity="1.00" d=" M 348.34 53.54 C 350.77 53.46 353.22 53.35 355.66 53.52 C 355.77 53.85 356.00 54.51 356.11 54.84 C 353.75 54.95 351.37 54.75 349.04 55.12 C 348.83 56.90 348.37 58.97 349.24 60.61 C 351.12 60.72 353.02 60.60 354.91 60.84 L 354.88 62.10 C 352.96 62.33 351.03 62.20 349.11 62.29 C 348.45 64.27 348.78 66.42 348.86 68.47 C 351.22 68.66 353.60 68.55 355.96 68.72 L 355.95 70.10 C 353.08 70.22 350.12 70.51 347.33 69.71 C 347.30 64.35 346.98 58.90 347.63 53.60 L 348.34 53.54 Z" />
</g>
</svg>
