<svg id="svg" version="1.1" width="876" height="2400" xmlns="http://www.w3.org/2000/svg" xmlns:xlink="http://www.w3.org/1999/xlink" style="display: block;"><g id="svgg"><path id="path0" d="" stroke="none" fill="#000000" fill-rule="evenodd"></path><path id="path1" d="" stroke="none" fill="#808080" fill-rule="evenodd"></path><path id="path2" d="" stroke="none" fill="#aaaaaa" fill-rule="evenodd"></path><path id="path3" d="M213.927 303.474 C 208.904 306.095,199.349 311.034,192.694 314.449 C 186.039 317.865,178.950 321.532,176.941 322.599 C 174.932 323.665,169.229 326.620,164.269 329.164 C 159.309 331.708,151.296 335.833,146.461 338.329 C 141.627 340.826,133.345 345.089,128.057 347.804 C 122.770 350.519,91.794 366.498,59.222 383.313 L 0.000 413.887 0.000 516.989 C 0.000 573.695,0.134 620.091,0.298 620.091 C 0.556 620.091,30.477 604.863,55.023 592.240 C 59.292 590.044,67.922 585.627,74.201 582.423 C 86.966 575.910,101.835 568.308,114.840 561.644 C 119.612 559.199,128.858 554.474,135.388 551.142 C 141.918 547.811,150.753 543.290,155.023 541.096 C 159.292 538.902,173.984 531.389,187.671 524.401 C 201.358 517.413,215.023 510.414,218.037 508.849 L 223.516 506.003 223.631 402.316 C 223.694 345.289,223.592 298.648,223.403 298.669 C 223.214 298.691,218.950 300.853,213.927 303.474 " stroke="none" fill="#bababa" fill-rule="evenodd"></path><path id="path4" d="M389.269 691.602 C 384.247 694.223,374.692 699.164,368.037 702.582 C 361.381 705.999,353.881 709.870,351.370 711.184 C 348.858 712.497,342.694 715.681,337.671 718.261 C 332.648 720.840,325.662 724.441,322.146 726.264 C 318.630 728.087,286.370 744.731,250.457 763.250 C 214.543 781.770,183.105 798.002,180.594 799.322 L 176.027 801.723 175.912 905.452 L 175.797 1009.181 179.565 1007.160 C 181.638 1006.049,189.703 1001.901,197.489 997.942 C 205.274 993.984,215.548 988.746,220.320 986.301 C 230.756 980.956,245.639 973.344,260.502 965.751 C 266.530 962.672,274.954 958.358,279.224 956.164 C 283.493 953.970,293.253 948.977,300.913 945.068 C 308.573 941.160,329.326 930.546,347.032 921.482 C 364.737 912.417,383.588 902.797,388.923 900.103 L 398.622 895.205 398.626 790.982 C 398.628 733.659,398.579 686.776,398.516 686.797 C 398.453 686.818,394.292 688.980,389.269 691.602 " stroke="none" fill="#c7c7c7" fill-rule="evenodd"></path><path id="path5" d="M223.516 402.240 C 223.516 459.476,223.670 506.210,223.858 506.094 C 224.047 505.977,224.201 459.148,224.201 402.028 C 224.201 344.908,224.047 298.174,223.858 298.174 C 223.670 298.174,223.516 345.003,223.516 402.240 " stroke="none" fill="#cecece" fill-rule="evenodd"></path><path id="path6" d="M223.744 53.996 L 223.744 107.992 221.575 109.072 C 217.997 110.853,216.552 111.590,208.447 115.761 C 191.910 124.272,179.727 130.578,170.091 135.615 C 167.329 137.059,161.678 139.987,157.534 142.123 C 153.390 144.258,146.815 147.648,142.922 149.657 C 139.030 151.665,132.352 155.107,128.082 157.305 C 123.813 159.503,118.265 162.380,115.753 163.699 C 113.242 165.017,107.078 168.204,102.055 170.781 C 97.032 173.358,90.868 176.543,88.356 177.857 C 85.845 179.172,80.297 182.046,76.027 184.245 C 71.758 186.443,65.594 189.630,62.329 191.326 C 59.064 193.022,53.721 195.798,50.457 197.495 C 47.192 199.192,40.514 202.644,35.616 205.168 C 30.719 207.691,23.219 211.561,18.950 213.768 C 14.680 215.975,8.671 219.072,5.596 220.649 L 0.005 223.516 0.002 318.621 L -0.000 413.725 4.680 411.264 C 7.255 409.911,13.368 406.743,18.265 404.224 C 25.585 400.460,66.180 379.522,191.210 315.022 C 195.542 312.787,202.734 309.081,207.192 306.786 C 211.650 304.491,217.196 301.615,219.517 300.394 C 221.838 299.173,223.841 298.174,223.970 298.174 C 224.098 298.174,224.151 344.933,224.088 402.083 L 223.973 505.992 218.037 509.074 C 214.772 510.770,205.114 515.718,196.575 520.071 C 188.037 524.424,173.242 531.984,163.699 536.871 C 154.155 541.759,141.313 548.331,135.160 551.476 C 129.007 554.621,119.452 559.508,113.927 562.336 C 101.019 568.941,67.381 586.134,52.968 593.493 C 46.815 596.634,38.493 600.897,34.475 602.966 C 30.457 605.035,21.056 609.852,13.584 613.670 L -0.000 620.613 -0.000 639.987 C -0.000 650.643,0.155 659.361,0.345 659.361 C 0.735 659.361,11.272 654.125,135.269 592.309 L 224.192 547.979 224.310 526.927 L 224.429 505.874 236.301 499.824 C 250.112 492.786,271.030 482.099,283.105 475.912 C 287.751 473.531,295.970 469.322,301.370 466.557 C 306.769 463.793,315.091 459.528,319.863 457.079 C 324.635 454.631,335.114 449.275,343.151 445.177 C 351.187 441.080,363.105 434.990,369.635 431.644 C 376.164 428.299,385.668 423.458,390.753 420.888 L 400.000 416.214 400.000 311.760 C 400.000 254.310,399.836 207.306,399.635 207.306 C 399.434 207.306,399.074 207.483,398.836 207.699 C 398.432 208.065,393.041 210.865,371.005 222.152 C 360.975 227.289,350.334 232.783,343.151 236.533 C 336.425 240.045,326.916 244.953,315.297 250.911 C 310.023 253.615,303.447 257.008,300.685 258.450 C 297.922 259.892,291.758 263.076,286.986 265.527 C 282.215 267.977,275.639 271.366,272.374 273.058 C 269.110 274.750,262.123 278.348,256.849 281.054 C 251.575 283.759,244.795 287.257,241.781 288.827 C 231.145 294.367,224.596 297.717,224.400 297.717 C 224.290 297.717,224.202 255.029,224.204 202.854 L 224.207 107.991 231.814 104.110 C 235.998 101.975,244.267 97.747,250.190 94.714 C 268.550 85.314,282.440 78.206,293.607 72.496 C 299.509 69.479,308.858 64.696,314.384 61.867 C 319.909 59.039,328.950 54.413,334.475 51.589 C 340.000 48.764,348.425 44.453,353.196 42.008 C 357.968 39.564,367.523 34.681,374.429 31.157 C 381.336 27.633,389.914 23.246,393.493 21.408 L 400.000 18.066 400.000 9.033 L 400.000 0.000 311.872 0.000 L 223.744 0.000 223.744 53.996 M391.324 539.084 C 386.678 541.482,379.075 545.412,374.429 547.817 C 369.783 550.223,363.105 553.671,359.589 555.481 C 356.073 557.292,351.039 559.902,348.402 561.283 C 342.958 564.133,332.755 569.400,319.406 576.252 C 314.384 578.830,308.425 581.918,306.164 583.114 C 303.904 584.310,298.562 587.083,294.292 589.275 C 282.976 595.086,272.200 600.654,266.210 603.784 C 261.420 606.287,253.950 610.157,241.096 616.796 C 238.459 618.158,233.219 620.869,229.452 622.819 C 220.325 627.546,210.500 632.622,201.598 637.213 C 197.580 639.285,191.005 642.691,186.986 644.782 C 182.968 646.873,178.807 648.993,177.740 649.493 L 175.799 650.403 175.799 725.887 C 175.799 767.402,175.899 801.370,176.022 801.370 C 176.144 801.370,198.182 790.048,224.994 776.211 C 251.807 762.374,277.751 748.990,282.648 746.468 C 287.546 743.947,293.813 740.707,296.575 739.268 C 299.338 737.830,306.221 734.277,311.872 731.374 C 317.523 728.470,339.300 717.244,360.265 706.426 C 381.230 695.609,398.439 686.758,398.507 686.758 C 398.575 686.758,398.630 733.680,398.630 791.029 L 398.630 895.300 391.210 899.088 C 387.129 901.171,375.571 907.080,365.525 912.219 C 355.479 917.358,342.123 924.188,335.845 927.398 C 286.490 952.626,264.643 963.799,256.393 968.027 C 245.810 973.452,232.037 980.494,198.402 997.676 L 176.027 1009.106 175.912 905.466 C 175.849 848.464,175.683 801.826,175.544 801.826 C 175.202 801.826,171.609 803.622,162.100 808.547 C 134.063 823.069,131.325 824.483,120.091 830.243 C 114.692 833.012,107.808 836.559,104.795 838.126 C 101.781 839.692,95.822 842.774,91.553 844.974 C 87.283 847.174,80.708 850.568,76.941 852.516 C 65.527 858.419,55.980 863.329,45.662 868.602 C 40.263 871.361,34.612 874.287,33.105 875.103 C 31.598 875.919,24.920 879.377,18.265 882.787 C 11.610 886.197,4.829 889.682,3.196 890.532 L 0.228 892.077 0.113 993.984 L -0.002 1095.890 3.561 1095.890 C 5.520 1095.890,7.318 1095.712,7.557 1095.495 C 7.796 1095.277,14.155 1091.961,21.689 1088.126 C 29.224 1084.291,39.498 1079.053,44.521 1076.486 C 49.543 1073.918,59.201 1068.986,65.982 1065.525 C 72.763 1062.065,81.393 1057.646,85.160 1055.705 C 88.927 1053.764,97.352 1049.454,103.881 1046.127 C 110.411 1042.800,119.658 1038.073,124.429 1035.622 C 129.201 1033.170,138.037 1028.648,144.064 1025.571 C 150.091 1022.494,159.567 1017.640,165.121 1014.783 C 170.675 1011.926,175.350 1009.589,175.509 1009.589 C 175.669 1009.589,175.799 1026.849,175.799 1047.945 C 175.799 1069.041,175.941 1086.301,176.115 1086.301 C 176.289 1086.301,194.628 1077.230,216.869 1066.144 C 239.109 1055.057,289.412 1029.986,328.653 1010.430 L 400.000 974.874 400.000 754.789 C 400.000 633.742,399.949 534.708,399.886 534.713 C 399.823 534.718,395.970 536.685,391.324 539.084 " stroke="none" fill="#dadada" fill-rule="evenodd"></path><path id="path7" d="" stroke="none" fill="#e3e3e3" fill-rule="evenodd"></path><path id="path8" d="" stroke="none" fill="#eaeaea" fill-rule="evenodd"></path><path id="path9" d="" stroke="none" fill="#ffffff" fill-rule="evenodd"></path></g></svg>